<?xml version="1.0" encoding="utf-8"?>
<!-- Generator: Adobe Illustrator 21.0.2, SVG Export Plug-In . SVG Version: 6.00 Build 0)  -->
<svg version="1.1" id="Ebene_1" xmlns="http://www.w3.org/2000/svg" xmlns:xlink="http://www.w3.org/1999/xlink" x="0px" y="0px"
	 viewBox="0 0 141.7 141.7" style="enable-background:new 0 0 141.7 141.7;" xml:space="preserve">
<style type="text/css">
	.st0{fill:#dddddd;}
</style>
<path class="st0" d="M31.5,116.6c0.6,0.7,1.1,2,0.7,3c-0.4,0.5-0.7,1.1-1.5,1.2c-1.7-0.2-2.8-2-3.3-3.5c-0.2-1,0.6-1.2,1.3-1.5
	C29.9,115.5,30.8,115.9,31.5,116.6 M54.3,74.3c3.1-1.3,3.1-5.4,5.9-7c0.4-0.1,0.6,0.1,0.6,0.4c-1.3,2.8-1.7,6.3-4.9,7.7
	c-2.2,0.7-4.1-0.7-6.2-1c-1.6-0.4-3.4-0.2-4.4-1.7c-0.2-1.7,0.5-3.2,1.3-4.5c1.5-0.2,3.1-0.7,4.6-1.1c-0.7,1.7-3.1,2.7-3.5,4.4
	c1.8-1.5,3.5-3.7,6.3-3.8c-1.1,1.8-2.3,3.2-2.7,5.3c0.6-0.7,1.5-2.1,2.2-3l1.6-2.2l3.2-0.5C57.5,69.6,55.6,72,54.3,74.3 M102.5,52.2
	l-0.1,1.8c0.1,1.5,1.6,0.1,2.2,0.7c-0.1,0-0.1,0.2-0.2,0.1c-0.5,0.2-1,0.6-1,1.3c1.1,0.2,2-0.7,2.7-1.3
	C105.2,53.8,103.9,52.8,102.5,52.2 M99.1,44.2l-2-0.6C97.9,43.1,99,43.6,99.1,44.2 M102.7,47.5c-0.4-1.2-1.1-2.2-2-3.3
	c-1.1-1.5-3.3-1.8-4.9-1c-0.6,0.4-1.3,1.1-1.2,1.6c1.1-0.2,1.7,0.1,2.8,0c0.2,0.2,0.7,0.1,0.6,0.6c-1,0.1-2.2,0-2.9,0.5
	c0.6,0.6,2,0.5,2.9,0.5C99.7,46.4,101.1,47.4,102.7,47.5 M59.8,82.2c-1.5,1.5-4.1,2.2-6.3,1.3c-1.1-0.4-2.6-1.3-2.9-2.6v-1.5h0.4
	c0.6,2,2.7,3.2,4.6,3.4c2,0.2,3.5-1.1,4.5-2.6l1.1-2.6C61.5,79.5,60.8,81.2,59.8,82.2 M53.1,85.9c-2.3-0.4-4.8-1.7-5.9-3.9
	c-0.4-1.5-0.4-3.5,0.5-4.8c0,1.7-0.5,3.8,0.6,5.4C49.7,84.4,51.6,84.9,53.1,85.9 M51.6,87.4c-2.6,0.4-5.1-1-6.7-2.8
	c-1.5-1.8-2.3-4.4-1.6-6.8c0.1-0.4,0.4-1,0.7-1.2c-1,2.3-0.4,5.3,1,7.3C46.7,86.1,49.3,86.9,51.6,87.4 M66,63.9c0-0.4-0.1-1-0.5-1.1
	c-2.3,1.8-3.5,4.5-4.9,7.3c-1.2,3-1,7-3.4,9.4c-0.6,0.1-1.7,0.4-2.3-0.1c-1.1-0.5-0.5-2-0.6-3c-2.9-0.2-5.1-2-8.2-1.7
	c-1.8,0.2-3.5,1.3-4.1,3c-0.7,3.1,0.1,6.3,2.2,8.4c1.8,1.7,4.4,2.9,7,2.3c2.9-1.2,5.9-2.3,8.7-3.7c2-1.5,3.4-3.3,3.3-6.1
	c-0.5-4.4-1.5-9.3,1.2-12.9C64.8,65.1,65.9,64.8,66,63.9 M110.6,62.2c-1.2-1.8-3.4-2.9-5.4-2.1C107.3,59.9,109,61.6,110.6,62.2
	 M108.9,58.4c0.5,0.6,1.2,1.7,2.1,2.1C110.5,59.6,110.1,58.6,108.9,58.4 M103.7,67.1c0.5,0.7,0.5,2,0.5,2.8c0.2-0.1,0.4-0.5,0.4-0.7
	C104.6,68.3,104.4,67.3,103.7,67.1 M94.3,65.7c-1.3,0.4-3.1,0.4-3.9,1l0.2,0.1c2.7-0.5,5.4-0.5,7.7,0.4
	C97.5,65.9,95.9,65.7,94.3,65.7 M89.8,65.4c2.1-0.1,4.4-1.2,6.8-0.6l0.1-0.2C94.5,63.2,91.8,64.5,89.8,65.4 M83.2,69.6
	c-3.2,1-3.3,4.6-6.3,5.3c-1.1,0.1-2.1-0.5-2.7-1.2c0.2,0.7,1.3,1.7,2.6,1.7c3.4-0.7,4.3-6.3,8.7-5.5c3.2-0.4,4.3,4.6,7.7,2.6
	c-0.7,0-2,0.2-2.8-0.1C88.5,70.7,86.2,68.5,83.2,69.6 M71.3,72.3c-0.1,2.3,1.5,4.6,3.5,5.7c3.8,1.3,5.7-2.7,8.1-4.5
	c3.7-2.6,6.7,2.2,10.3,0.2c0-0.5-0.6,0-1.1-0.1c-3.2,1.1-4.6-2.3-7.7-1.7c-3.3,1.5-5.1,6.8-9.6,5.5C72.9,76.6,71.6,74.3,71.3,72.3
	 M69.9,73.9c0,0,0.6,3.2,2.6,4.7c1.9,1.6,3.9,2.1,6,1.1c2-1,3.4-2.3,4.3-3.2c0.9-0.7,2-2.1,3.9-1.7c1.9,0.4,3.8,0.7,4.3,0.6
	s0.9-0.4,0.9-0.4s-1.3,0.3-3.3-0.1c-1.9-0.5-3.7-1-5.7,1c-1.9,2-4.2,3.9-6.5,3.9c-2.9,0-4.8-3-5.1-3.3C71,76.3,69.9,73.9,69.9,73.9
	 M74.1,64.3c0.1,0.5,0.7,1.5,1.5,1.3c-1.1-1.7-1.8-3.8-1.5-6.1L74,59.4C73.5,60.8,73.6,62.9,74.1,64.3 M72,48.4
	c2.7-0.7,5.3,0.4,6.8,2.3c3.5,3.5,5,9.3,10.7,10.7c4.3,0,9.5,0.4,11.7-3.5c0.7-2,0.2-4.4-0.7-6c-1.8-1.8-4.3-2.9-6.6-4.1
	c-0.9-0.5-1.6-1-1.8-1.2c-1.6-0.6-0.9-1.9,0.6-3.5c2.5-2.6,3.7-3,3.7-3s-1.2,0.1-1.9,0.5c-0.7,0.5-1.2,0.6-3.4,3.3
	c-1.9,2.2,0.1,3.1,1.8,3.9c2.3,1.4,4.8,2.7,6.8,4.5c1.1,1.5,1.3,3.7,0.4,5.3c-1.8,3.3-6.3,3.2-9.9,3c-7.3-1.3-7.7-9.6-13.7-12.7
	c-2.3-1-5.5-0.6-7.7,0.6c-6.1,2.9-3.9,11.7-10,14.8l-9.6,0.7c-0.4,0.1-0.7,0.5-0.7,1l7.9-0.6c2-0.1,3.7-0.5,5.1-1.7
	C65.9,58.4,64.8,49.9,72,48.4 M66,69.3l-0.6,0.7c-1.1,2-0.4,4.6,0.6,6.5c0.2-1.2-0.7-2.1-1-3.2C64.9,71.8,65.5,70.4,66,69.3
	 M100.7,80.3c-1.5-1-3.9-0.7-5.4,0.1c1.5,0,3.4-0.5,5-0.1c0.4,0.5,0.4,1.3,0.2,1.8c-0.2,0.6-1,1.3-1.5,1.3c-0.2-0.6,0.1-1.2-0.2-1.8
	c-1,0-2-0.1-2.8,0.1c0.5,1.3,2.3,1.3,3.1,2.7c-0.5,0.2-1.1-0.4-1.7,0l0.1,0.1c0.6,0.4,1.5,0.4,2,0c1-1,1.3-2.3,1.5-3.7L100.7,80.3z
	 M94.8,94.9c0.7,1.7,3.2,0.7,4.6,1.2c-0.7-1.2-2.2,0.1-3.4-0.6c-0.6-0.4-0.7-1.3-0.7-2C94.7,93.6,94.8,94.4,94.8,94.9 M29.9,108.7
	l1.5-2.1C30.5,107,29.8,107.8,29.9,108.7 M81.4,116c3.4,1.7,6.6,3.8,9.5,6.5c-0.1-0.5-0.1-1.1-0.4-1.5l-6.1-3.5
	c-1.2-0.2-1.8-1.7-3.2-1.7L81.4,116z M38.1,124.1c-0.5-0.5-1-1-1.7-1.2l1.6,1.2c1.7,0.7,2.1,2.3,3.9,2.9
	C40.8,125.7,39.5,124.8,38.1,124.1 M99.5,128.6c2-0.2,3.5-1.7,4.4-3.4c-0.1-0.5-0.5-1.3-1.1-1.3c0.2,0.4,0.4,1,0.4,1.5
	C102,126.5,100.6,127.5,99.5,128.6 M106.8,71c0.5-0.4,0.7-1.2,0.6-2.1l-0.5-2c-0.4-0.5-0.7-1.6-1.6-1.3
	C107,66.8,106.9,68.9,106.8,71 M109.5,71c0.2-1.2,0.4-2.7-0.4-3.4c0.5,1.7,0,3.3-1,4.8C109,72.2,109.2,71.6,109.5,71 M110.2,74.2
	c1.8-1.3,1.8-3.8,1.5-6c-1.2-1.3-0.1,1-0.4,1.5c0.2,1.8-1,3.3-1.8,4.6C109.6,74.4,110,74.3,110.2,74.2 M112.7,67.7
	c0.7,2.3,0.2,5.3-1.3,7.1c-1.7,2.1-3.9,0-6-0.5c-0.2-0.1-0.6-0.5-1.1-0.2c2.9,2.3-0.7,5-1.2,7.6c-1.1,3.9-0.6,8.6-0.7,12.8
	c-0.2,1.2-1.3,1.8-2.2,2.6L98.1,97c-1.6,0.7-1.6,3.8-3.9,3.1c-0.2-0.4-0.6-0.2-1.1-0.5c-0.1,1,0.7,1.2,1.3,1.8
	c-0.6,1.2-1.8,1.8-3.1,2.2c-0.7,2.2-2,4.9-4.5,5.1c-4.6-0.2-8.2-3.4-11.7-5.9c-3-2.8-3.9-7-5-10.9c-0.4-0.6-0.5-1.5-1-2.1
	c-0.5,0.6-0.1,1.8,0,2.8c0.5,3.9,2.7,7,4.4,10.5v7.7c6.6,2.9,13.4,4.9,20.4,7.3c4.9,2.6,10.6,4.3,14.4,8.3c-5,3.9-11.1,6.8-17.2,8.9
	c-0.6,0-1.2,0.2-1.7,0.1c3.1-3.9,7.4-6.6,10.9-10.3c0.6-0.6,1.2-1.5,1-2.6c-0.2-0.5-0.7-0.5-1.2-0.6c0.1,0.7,0.2,1.8-0.1,2.6
	c-5.1,4.8-11.1,8.4-16.1,12.9c-1,0.5-2,0.6-3.1,0.6c1.3-2.2,4.1-2.8,5.9-4.6c3.3-2.7,6.7-5.1,10.5-7.8c1.1-1.1,1.7-2.3,1.8-3.8
	c-0.6-0.6-1.3-1.3-2.2-1.3c0.2,1.1,0.6,2.7,0,3.7c-3.3,3.8-8.2,5.9-12.1,8.9c-3.3,1.8-6,4.8-9.6,5.5c-13.3,0.2-25.8-3.3-36.2-10.3
	c-2.2-1.6-4.8-3.3-6.5-5.4c-0.5-0.4-0.2-1.1,0-1.5l0.5-0.4c1.2,0.7,2.6,1.5,3.7,2.1c-0.7-0.6-2-1.6-2.6-2.8c3.5,0.5,6.3,3.2,9.5,5
	c2.7,1.7,5,4.5,8.2,5.4c0.1-0.7-0.6-1.2-1.1-1.8c-5-4.3-10.9-6.8-16.5-9.8c-0.5-0.7-0.6-1.5-0.5-2.6c6,3.7,12.7,6.1,18.8,10
	c4.8,3.2,9.3,6.7,14.7,9.3c1.5,0.7,3.4,0.4,4.9,0c7.4-3.2,14.8-6.2,21.7-10.5c1.2-1,2-2.3,1.8-3.8c-0.2-1.1-0.6-2-1.8-2.3
	c-0.2,0-0.4-0.4-0.6-0.1c0.5,1.3,1.8,2.6,1.2,4.1c-2.1,3.7-6.8,4.6-10.5,6.5c-5,2-9.9,4.1-15,5.7c-3.3,0.5-5.5-2.6-7.7-4.3
	c9.3,1.5,18.1-0.5,25.5-4.5c0.7-0.6,1.7-1.5,1.7-2.6c-1.2-2.3-3.3-3.5-5.3-5.1c-2-1.3-3.5-3.3-6-4.3c-0.4-0.6-1.2-1.5-2-1.3
	c3.8,3.7,8.3,6.8,11.6,11c0.5,1.2-0.6,1.7-1.5,2.2c-6.8,3.9-15.9,4.8-24,3.4c-3.9-1.1-6.7-3.8-10.1-5.9c-4.6-3.2-10.3-5.5-15.4-8.4
	c0.5-2.9,0.6-6.6,2.1-9.4c-0.7,0-1.2,1.1-1.7,1.7c-1,2.1-0.6,4.9-1,7c-0.4,0.4-1-0.2-1.3-0.5c-0.5-1.3-1.7-2.8-1.2-4.4
	c0.7-1.2,0.4-3.2,1.8-3.9l-0.2-0.2c-2.7,2-2.7,5.7-2.1,8.6c-1.8,1-4.8,0.6-7.1,0.7c-1.2-1.3-2-3.1-3.2-4.6c2.9-1.6,6.2-3.3,9.4-4.6
	c2.6-1.2,5.5-1.6,8.6-2.1c3.4-2.1,5.7-6.1,7.8-9.5l2.3-4.8l9.8-4.1c2.9-1.5,3.8-4.3,4.9-7c0.6,1.5,0.4,4.1,2.3,4.8
	c2.2,1.2,4.3-0.6,6.2-1.5c3.2,1,7,0.7,9.5-1.3l3.5-3.3c2.3,0.2,4.9,1,7.1,0c2.7-1.6,3.8-4.4,6.3-6.1c1.2,0.4,2.2,1,3.2,1.6
	c0-0.5,0-1-0.1-1.3c-3,0.2-3.7-3.8-6.8-3.2c-1.6,0.4-3.1,1.8-4.6,1c-1.6-1.5-3.8-2.7-6-2.2c3.4-0.2,4.9,3.2,8.3,3.2
	c1.3-0.2,3.1-1.2,4.3,0l0.7,1.1c-1.8,1.5-3.2,3.3-4.6,5.1c-3,2.9-7.9-1.8-10.5,2.2c-1.7,2.3-4.6,3.5-7.7,3.1
	c-1.8-0.4-3.7-1.2-5.1-2.2c-0.4,0,0.2,0.5,0.2,0.9c-0.1,1-0.4,1.8-1.1,2.8c-1,0.4-2.1,0.5-3.1,0.1c-2.1-1.3-1-4.1-2.1-6
	c-1.2-2.7-2.3-6.1-1.1-8.9c0.4-1.1,1.3-1.7,2.1-2.7l2.1-0.1v-0.4c-1.1-1.1-1.8-2.6-1.8-4.3c0.1-1,0.6-1.8,0.2-2.8
	c-1,1.2-1.1,2.9-1.8,4.3c-0.7,2-2.3,3.8-4.6,4.1c-4.5,0.5-9.4-0.2-13.4,1.2c0.4-1.2,1.2-2.6,1.2-3.9c-2.8-4.8-8.3-8.7-8.2-14.9
	c-0.2-12.5,7-22.9,17.5-28.1c11.1-5.3,27-3.8,36.1,3.9c3.3,2.7,3.4,7,5.9,10.3c4.1,6.6,8.1,13.3,11.1,20.6c-1.1,0.2-2.1,0-3-0.6
	c-1-3.3-3-6.5-4.5-9.4c-0.6-1.8-1.7-3.5-3.4-4.4c-2.3-1-3.8,2.6-5.3,3.5c-0.2,0.5-0.5,1-0.4,1.6c0.7,0.1,1.2,0.7,2,1.2
	c3.1,0,7-0.5,8.4,2.3v0.1c-0.4,0-1-0.6-1.2-0.1c0.7,0.5,1.6,1.1,2,2c-1.5-0.2-2.6-1.5-3.8-1.8c-1.5-0.4-2.7-1.3-3.8-2.2
	c-0.1,0.1-0.4-0.1-0.5,0.1c1.7,1.6,4.1,2.1,5.3,4.3c0.6,2,1.2,4.6,0,6.6c-3.2,4.5-9.8,4.4-14.4,3.2c-5-2.3-6.2-8.4-10.7-11.7
	c-2.2-0.7-4.5,0-6.3,1.2c-1.7,1.3-2.8,3.3-3.3,5.3c1.7-2.7,4.1-6.6,8.3-5.7c0.4,0,1,0.1,0.6,0.6c-3,1.6-6.6,3.5-7,7.6
	c-0.2,1.3-0.4,2.7,0.1,3.8c0.1-2.9,1.1-6,3.4-7.9c1.6-1,3.5-2.3,5.5-1.7c0.4,0.4-0.2,0.7-0.5,1.1c-2.9,1.2-5.7,3.2-5.5,6.7v0.5
	c0.4-0.4,0.4-1.5,0.6-2.1c0.7-2.9,3.8-4.4,6.6-5c0.5,0.1,1.1,0.4,1.3,1c-1.3,1.3-3.4,1.7-4.5,3.7c-0.6,1.2-0.5,2.9,0,4.1
	c0.5,0.6,1.1,1.2,1.8,1.5c0-1.5-1-3.3,0.1-4.8c0.6-1.1,1.7-2.1,3.2-1.8c1.1,1.2-0.6,2.1-0.6,3.4c-0.1,0.6-0.1,1.6,0.4,2.1
	c0.2,0.1,0.6,0.4,1,0.4c0.1-1.2,0.2-2.6,1.5-3h0.2V63c0.6,0,1.3-0.6,1.8-0.6c-0.5,2.1-2.9,2.8-3.7,4.8c-2.2,0.5-5.1,1.3-7.3,0.1
	c-1.3-1.2-3.5-1.2-5.3-0.7c-0.1,1,2,1.3,0.7,2.6l-0.5,0.5c-0.2-0.1-0.5-0.6-0.7-1l-1.2,0.1v0.1l1.2,0.1c-1.1,1.5-2.2,2.9-2,4.8
	c0.1,1.8,1.6,3.3,2.7,4.5C68.6,77,67.8,75,68.4,73c0.4-1.8,1.6-3.4,3.4-4.1c1.1-0.4,2.2-0.1,3.3,0.1c-0.2,1.3-0.4,2.9,0.7,3.7
	c3.1-0.2,3.3-3.9,6.1-4.6c1.1-0.2,2-0.6,3.2-0.6c-0.3-0.9-1.6-1-2.5-1c1.3-1.2,2.6-2.6,4.3-2.9l7.9-0.4c2.6,0.2,4.1,2.1,5.3,4.1
	c0.4,0.4,1,0.1,1.3,0c0.6-0.4-0.2-0.7,0.1-1.5l1.3,0.2c-0.5-0.6-1.5-1-2.1-1.6l2-1.7c-1.5,0.2-3.3,0.7-4.6-0.1
	c1.3-1,3.4-1.6,4.4-3.3c0.6-1.1,1.7-2.7,3.1-2.9c2.2-0.5,4.1,0.5,5.5,1.7c1.7,1.6,0.7,4.4,1.2,6.6c-2.2-1.3-4.6-4.1-7.6-2.9V62
	C108.4,62.3,111.3,64.5,112.7,67.7 M126.7,41.6c4.4,9.5,6.3,20.3,6.3,31.5c-0.5,16.6-5.1,31.9-15.1,44.2c-1.8,2.3-4.1,4.6-6.5,6.6
	l-3.2-2c0.1-2,2.7-3,3.7-4.5c9.9-10.5,15.5-23.6,16.7-38.5c0.2-9.1,0-19-2.9-27.7c-6-17.9-19.7-33.7-38.2-38.6
	c-2.1-0.4-4.4-1.3-6.5-1.3L80.9,11c-16-2.6-33.4,2.2-45.5,13.1c-10.6,8.9-16.1,21.8-19,35.2c-3.2,16.2,0.1,32.7,7,46.3
	c-1,0.7-2.1,1.6-3.5,1.7l-0.5-0.6c-9.4-17-10.6-41.4-3.7-59.8c7.6-23.3,28.6-39.8,54-41C95.2,4.8,116.8,19.8,126.7,41.6"/>
</svg>
